<svg xmlns="http://www.w3.org/2000/svg" viewBox="0 0 400 300" width="400" height="300">
  <defs>
    <pattern id="grid" width="40" height="40" patternUnits="userSpaceOnUse">
      <rect width="40" height="40" fill="#f5f5f5"/>
      <rect x="0" y="0" width="20" height="20" fill="#e8e8e8"/>
      <rect x="20" y="20" width="20" height="20" fill="#e8e8e8"/>
    </pattern>
  </defs>
  <rect width="100%" height="100%" fill="#f0f0f0"/>
  <rect width="100%" height="100%" fill="url(#grid)"/>
  <rect x="60" y="50" width="80" height="60" fill="#d8d8d8" rx="4"/>
  <rect x="160" y="50" width="80" height="60" fill="#d0d0d0" rx="4"/>
  <rect x="260" y="50" width="80" height="60" fill="#d8d8d8" rx="4"/>
  <rect x="60" y="130" width="80" height="60" fill="#d0d0d0" rx="4"/>
  <rect x="160" y="130" width="80" height="60" fill="#d8d8d8" rx="4"/>
  <rect x="260" y="130" width="80" height="60" fill="#d0d0d0" rx="4"/>
  <rect x="60" y="210" width="80" height="60" fill="#d8d8d8" rx="4"/>
  <rect x="160" y="210" width="80" height="60" fill="#d0d0d0" rx="4"/>
  <rect x="260" y="210" width="80" height="60" fill="#d8d8d8" rx="4"/>
</svg>

